<svg version="1" xmlns="http://www.w3.org/2000/svg" width="256" height="256" viewBox="0 0 192.000000 192.000000">
    <path d="M85 4.6C73.7 6.3 71.5 6.8 64.4 9.5c-6 2.3-16.2 7.2-17.4 8.5-.3.3-2.3 1.7-4.5 3.1-5.3 3.5-15.1 13.1-20.2 19.9C15.4 50.3 10 61.4 7.4 71.5c-.4 1.6-.8 3.4-1 4-1.2 4.4-1.6 7.4-1.9 17-.3 12.7 1.4 24.5 5.1 34.3C23.5 163.9 56 187 95 187.5c38.3.5 71.1-21.4 86.1-57.4 6.5-15.7 8.3-37 4.5-55.1-1.7-7.7-5.9-17.8-11.7-28-4.3-7.5-21.9-26-24.8-26-.5 0-1.4-.6-2.1-1.4-.6-.8-4.2-3-7.8-4.9-17-8.8-37.4-12.6-54.2-10.1z"/>
</svg>